<svg width="1024" height="1024" viewBox="0 0 1024 1024" fill="none" xmlns="http://www.w3.org/2000/svg">
<path d="M808.453 392.5C808.453 555.53 788.717 717.528 553.423 708.766C382.165 702.388 451.272 652 391.453 524C328.894 390.137 302.453 414.482 302.453 354.35C302.453 224.5 399.349 170 553.423 170C707.495 170 796.753 234.838 808.453 392.5Z" fill="white"/>
<path d="M406.981 709.904C472.693 760.796 670.985 768.272 734.259 702.866C782.055 653.46 760.051 729.088 746.425 769.044C741.539 783.372 730.923 794.884 717.329 801.542L652.729 833.182C601.201 858.422 541.299 860.304 488.263 838.352L432.919 815.446C419.197 809.766 408.031 799.254 402.175 785.606C385.535 746.822 357.165 671.322 406.981 709.904Z" fill="white"/>
<path d="M250.901 577.026C299.327 656.232 334.861 694.018 361.475 682.808C388.089 671.598 395.818 630 356.759 538.308C327.539 469.714 286.631 414.35 260.953 428C203.18 458.71 202.474 497.82 250.901 577.026Z" fill="white"/>
</svg>
